<svg version="1.0" xmlns="http://www.w3.org/2000/svg" width="700.000000pt" height="627.000000pt" viewBox="0 0 700.000000 627.000000" preserveAspectRatio="xMidYMid meet">
  <style>
    svg {
      fill: #931a25;
    }
  </style>
  <g transform="translate(0.000000,627.000000) scale(0.100000,-0.100000)" stroke="none">
    <path d="M5760 6261 c-8 -5 -35 -11 -59 -15 -140 -21 -323 -127 -450 -262 -83 -87 -220 -284 -282 -404 -23 -45 -35 -59 -37 -46 -2 10 2 30 8 45 7 14 18 37 24 51 6
14 39 69 74 123 36 54 63 100 60 102 -21 21 -149 -181 -209 -330 -22 -54 -73 -234 -88 -310 -5 -27 -15 -75 -22 -105 -21 -102 -24 -300 -4 -382 18 -77 33
-129 45 -163 5 -11 14 -36 21 -55 11 -30 102 -214 165 -332 24 -46 107 -132 182 -190 28 -22 52 -46 52 -53 0 -7 -21 -23 -46 -35 -140 -65 -293 -180 -465
-346 -47 -46 -90 -84 -94 -84 -8 0 92 114 171 194 49 50 65 76 48 76 -16 0 -156 -119 -220 -187 l-70 -76 -85 26 c-76 23 -122 35 -269 68 -25 6 -61 14 -80
19 -106 26 -370 60 -463 60 -49 0 -69 4 -73 14 -3 8 8 83 25 168 45 221 83 425 112 593 13 73 22 124 53 285 13 69 28 154 34 190 6 36 19 105 28 155 12 63
15 114 10 170 -7 88 -37 218 -60 264 -41 78 -211 261 -281 304 -17 9 -59 35 -95 57 -36 22 -82 45 -102 52 -21 6 -38 19 -41 29 -3 11 -11 19 -17 19 -7 0
-10 -8 -7 -19 3 -15 -2 -22 -22 -30 -29 -11 -81 -54 -81 -67 0 -5 -24 -23 -52 -41 -71 -42 -226 -158 -282 -211 -68 -64 -56 -31 16 44 67 70 141 130 203
164 22 12 47 28 56 36 8 8 23 14 32 14 9 0 17 5 17 10 0 12 -15 13 -38 1 -9 -5 -30 -15 -47 -23 -62 -28 -177 -110 -233 -166 -103 -103 -335 -444 -522 -767
-9 -16 -31 -53 -47 -81 -17 -27 -41 -70 -55 -95 -14 -24 -56 -98 -93 -164 -81 -143 -167 -321 -299 -620 -54 -121 -108 -242 -120 -270 -13 -27 -45 -107 -72
-177 -57 -147 -30 -127 -269 -204 -366 -117 -668 -275 -910 -476 -288 -238 -431 -490 -412 -724 10 -128 90 -243 398 -571 286 -305 333 -367 362 -473 45
-160 47 -253 12 -425 -30 -148 -33 -255 -7 -278 23 -21 127 -34 145 -19 11 9 19 5 36 -19 36 -48 53 -35 72 56 10 44 22 96 28 115 17 60 47 182 61 245 14
70 130 446 160 520 4 11 45 135 90 275 100 311 218 668 229 695 5 11 30 85 56 165 26 80 62 188 80 240 18 52 39 118 48 145 24 77 61 178 75 202 12 22 60
40 162 62 30 7 73 16 95 21 36 7 106 20 270 50 116 20 215 33 220 28 3 -2 9 -223 15 -489 8 -398 13 -507 29 -614 11 -71 22 -139 25 -150 2 -11 10 -47 16
-80 14 -64 36 -154 50 -195 4 -14 13 -45 20 -70 22 -79 60 -194 70 -212 6 -10 10 -22 10 -28 0 -5 14 -40 31 -77 43 -96 54 -120 80 -188 41 -110 147 -283
218 -358 47 -50 151 -118 275 -178 83 -41 108 -49 156 -49 102 0 104 27 13 158 -66 94 -110 170 -174 302 -45 91 -58 128 -82 230 -36 148 -49 563 -26 820
26 293 70 671 104 885 26 159 34 215 46 294 17 118 16 117 104 130 161 24 820 9 849 -19 7 -7 -10 -77 -34 -135 -40 -100 -44 -197 -11 -302 30 -94 90 -240
118 -285 13 -21 23 -40 23 -42 0 -3 23 -44 51 -92 80 -136 228 -280 434 -424 157 -110 309 -191 550 -295 17 -7 56 -24 88 -39 32 -14 60 -26 62 -26 5 0 40
-15 153 -66 29 -13 55 -24 58 -24 19 0 208 -98 259 -135 78 -55 145 -130 145 -161 0 -25 15 -33 23 -11 2 6 8 9 12 5 9 -9 -13 -73 -42 -120 -13 -21 -23 -44
-23 -52 0 -8 -12 -24 -26 -37 -42 -37 -77 -75 -101 -106 -42 -57 -287 -162 -473 -204 -110 -24 -370 -26 -489 -4 -186 36 -370 114 -545 232 -113 77 -135 94
-244 193 -40 38 -86 68 -130 86 -37 15 -79 36 -95 47 -15 10 -31 17 -36 15 -5 -2 -43 -31 -86 -66 -78 -65 -135 -139 -135 -177 0 -38 144 -244 258 -370 142
-157 383 -338 557 -419 44 -20 87 -41 95 -45 17 -9 237 -78 290 -91 138 -34 362 -60 525 -60 178 0 467 32 615 68 102 26 238 100 361 197 127 102 169 170
215 350 26 102 28 124 29 310 l0 200 -36 75 c-81 171 -374 531 -578 709 -106 93 -431 331 -452 331 -5 0 -9 6 -9 14 0 14 102 26 230 26 79 0 320 40 423 69
20 6 52 15 70 20 117 32 271 108 333 165 42 38 64 72 116 178 12 26 10 270 -3 325 -45 192 -80 274 -163 378 -31 39 -80 103 -109 144 -187 266 -272 357
-482 521 -117 91 -296 216 -335 233 -8 4 -69 35 -135 69 -134 71 -126 56 -106 178 6 36 14 86 17 113 4 26 11 50 15 53 5 3 9 17 9 32 0 57 66 234 142 380
58 112 91 162 172 256 34 39 67 83 73 97 21 49 226 175 315 193 107 23 159 16 224 -28 17 -12 70 -48 119 -80 l88 -59 28 34 c74 89 88 175 41 250 -50 78
-181 207 -273 269 -79 52 -112 71 -184 100 -42 18 -123 39 -185 50 -36 7 -81 16 -101 21 -45 11 -379 11 -399 0z m699 -497 c31 -10 -9 -23 -104 -34 -55 -6
-113 -16 -130 -22 -64 -22 -222 -103 -258 -131 -37 -29 -70 -78 -71 -107 -1 -18 -28 -52 -79 -99 -40 -37 -63 -37 -28 0 36 39 16 31 -29 -11 -23 -22 -46
-40 -50 -40 -5 0 0 22 10 50 23 62 94 152 198 252 68 64 91 80 163 108 46 18 104 36 129 40 44 7 221 3 249 -6z m-1542 -276 c-3 -8 -6 -5 -6 6 -1 11 2 17 5
13 3 -3 4 -12 1 -19z m-1585 -83 c-2 -22 -15 -76 -28 -120 -14 -44 -29 -96 -34 -115 -5 -19 -17 -60 -26 -90 -8 -30 -29 -102 -45 -160 -16 -58 -45 -152 -63
-210 -18 -58 -43 -139 -56 -180 -12 -41 -32 -106 -45 -145 -12 -38 -34 -110 -49 -160 -15 -49 -31 -98 -36 -107 -6 -10 -10 -29 -10 -43 0 -14 -4 -25 -10
-25 -13 0 -13 28 0 82 5 24 21 93 35 153 14 61 30 127 35 148 6 20 14 54 20 75 37 143 71 269 105 382 14 47 31 103 37 125 6 22 17 58 23 80 12 38 43 154
67 255 16 66 39 101 63 98 17 -3 19 -9 17 -43z m2606 -45 c-7 -11 -15 -20 -19 -20 -3 0 -22 -24 -42 -53 -44 -63 -84 -103 -94 -93 -13 13 31 78 77 114 25
20 52 45 60 54 21 24 33 23 18 -2z m-2855 -167 c-8 -27 -26 -88 -40 -138 -14 -49 -29 -103 -33 -120 -5 -16 -39 -147 -75 -290 -36 -143 -70 -276 -75 -295
-8 -30 -27 -112 -70 -305 -5 -22 -14 -62 -20 -90 -6 -27 -25 -106 -41 -175 -17 -69 -33 -137 -36 -152 -11 -61 -30 -68 -368 -128 -27 -5 -74 -13 -103 -19
-78 -16 -142 -14 -142 3 0 15 22 71 73 181 56 121 302 608 330 652 15 24 27 45 27 48 0 7 390 615 491 766 44 66 84 117 89 114 4 -3 1 -26 -7 -52z m2404
-66 c-4 -24 -13 -64 -20 -88 -8 -24 -20 -71 -27 -104 -7 -33 -18 -80 -26 -104 -8 -25 -14 -58 -14 -75 -1 -27 -2 -28 -11 -13 -7 13 -7 32 0 65 6 26 22 99
36 162 14 63 30 124 35 135 5 11 12 30 15 43 11 38 18 24 12 -21z m246 -20 c-13 -27 -33 -73 -66 -152 -23 -56 -71 -235 -97 -367 -12 -62 -18 -71 -40 -58
-11 7 -12 18 -1 67 13 58 74 260 90 298 5 11 21 52 37 90 29 73 40 96 64 132 18 28 27 21 13 -10z m-111 -79 c-7 -7 -12 -8 -12 -2 0 14 12 26 19 19 2 -3 -1
-11 -7 -17z m-3182 -78 c-22 -35 -40 -57 -40 -49 0 8 9 25 20 39 11 14 20 31 20 38 0 6 4 12 9 12 5 0 13 10 17 23 4 12 9 17 11 11 2 -7 -14 -40 -37 -74z
m3146 -28 c-28 -77 -56 -172 -80 -284 -10 -43 -22 -78 -27 -78 -35 0 22 236 93 390 38 82 48 63 14 -28z m-3196 -52 c0 -5 -5 -10 -11 -10 -5 0 -7 5 -4 10 3
6 8 10 11 10 2 0 4 -4 4 -10z m3277 -82 c-3 -7 -5 -2 -5 12 0 14 2 19 5 13 2 -7 2 -19 0 -25z m-17 -80 c-1 -34 -3 -39 -11 -26 -8 15 -3 68 7 68 2 0 4 -19
4 -42z m-20 -123 c0 -30 -4 -55 -10 -55 -11 0 -14 93 -3 103 12 12 13 8 13 -48z m-3613 -477 c-3 -8 -6 -5 -6 6 -1 11 2 17 5 13 3 -3 4 -12 1 -19z m-143
-354 c-158 -389 -141 -354 -181 -354 -18 0 -33 3 -33 6 0 3 11 20 25 38 14 18 25 35 25 38 0 3 29 66 64 139 35 74 76 161 91 194 59 131 129 267 132 258 2
-6 -53 -149 -123 -319z m3864 -93 c9 -4 58 -21 107 -36 50 -16 95 -31 100 -35 6 -4 26 -13 45 -20 19 -7 90 -39 156 -72 86 -41 132 -70 158 -98 34 -38 36
-44 36 -108 0 -60 -4 -72 -34 -112 -97 -133 -443 -299 -706 -339 -36 -6 -95 -15 -131 -21 -37 -5 -95 -10 -130 -10 l-65 0 -56 58 c-31 31 -63 71 -72 89 -21
43 -22 186 -1 239 77 193 254 381 425 451 56 23 136 30 168 14z m-2872 -568 c-8 -58 -25 -485 -34 -865 -4 -152 -10 -279 -13 -283 -24 -23 -23 882 1 1075
14 116 15 120 36 120 14 0 16 -7 10 -47z m3954 -167 c0 -74 -4 -107 -13 -115 -8 -6 -17 -8 -20 -4 -11 10 -8 179 3 208 19 49 30 15 30 -89z m-5360 -69 c0
-9 -52 -154 -80 -222 -4 -11 -12 -29 -16 -40 -7 -20 -8 -20 -11 1 -4 19 36 183 58 241 15 40 49 54 49 20z m5242 -42 c-6 -81 -53 -129 -68 -70 -14 55 20
130 55 123 13 -3 15 -14 13 -53z m162 -67 c-20 -32 -34 44 -17 89 5 13 10 4 15 -31 4 -28 5 -53 2 -58z m-5504 74 c0 -10 -9 -48 -20 -83 -11 -35 -25 -82
-31 -104 -6 -22 -15 -51 -20 -65 -5 -14 -22 -77 -38 -140 -38 -147 -40 -152 -76 -315 -9 -38 -20 -88 -25 -110 -13 -57 -79 -334 -90 -375 -5 -19 -21 -82
-35 -140 -14 -58 -30 -121 -35 -140 -5 -19 -16 -64 -25 -100 -35 -147 -55 -188 -72 -143 -33 89 -211 327 -432 578 -34 39 -80 96 -101 129 -34 50 -40 66
-40 112 0 226 305 557 715 775 127 68 285 139 308 139 10 0 17 -8 17 -18z m5125 -147 c-83 -72 -344 -186 -420 -184 -34 0 -33 1 70 40 75 28 313 142 340
163 40 31 49 15 10 -19z m-5148 -137 c-3 -8 -6 -5 -6 6 -1 11 2 17 5 13 3 -3 4 -12 1 -19z m5338 -18 c-3 -5 -13 -10 -21 -10 -8 0 -14 5 -14 10 0 6 9 10 21
10 11 0 17 -4 14 -10z m-55 -20 c0 -5 -10 -10 -22 -9 -22 0 -22 1 -3 9 11 5 21 9 23 9 1 1 2 -3 2 -9z m-53 -26 c-3 -3 -12 -4 -19 -1 -8 3 -5 6 6 6 11 1 17
-2 13 -5z m-57 -24 c-19 -13 -30 -13 -30 0 0 6 10 10 23 10 18 0 19 -2 7 -10z m-352 -47 c-10 -2 -26 -2 -35 0 -10 3 -2 5 17 5 19 0 27 -2 18 -5z m-3291
-655 c-3 -7 -5 -2 -5 12 0 14 2 19 5 13 2 -7 2 -19 0 -25z m20 -195 c-2 -16 -4 -3 -4 27 0 30 2 43 4 28 2 -16 2 -40 0 -55z" />
    <path d="M5856 5505 c-19 -19 -21 -35 -5 -35 6 0 8 -7 5 -16 -3 -9 -2 -12 5 -9 6 4 8 14 5 22 -4 9 -1 22 5 30 17 20 4 27 -15 8z" />
    <path d="M6310 1136 c0 -15 18 -31 26 -23 7 7 -7 37 -17 37 -5 0 -9 -6 -9 -14z" />
    <path d="M6290 1070 c0 -5 5 -10 10 -10 6 0 10 5 10 10 0 6 -4 10 -10 10 -5 0 -10 -4 -10 -10z" />
  </g>
</svg>
